<svg xmlns="http://www.w3.org/2000/svg" xmlns:xlink="http://www.w3.org/1999/xlink" viewBox="0,0,256,256" width="50px" height="50px"><g fill="#2395ec" fill-rule="nonzero" stroke="none" stroke-width="1" stroke-linecap="butt" stroke-linejoin="miter" stroke-miterlimit="10" stroke-dasharray="" stroke-dashoffset="0" font-family="none" font-weight="none" font-size="none" text-anchor="none" style="mix-blend-mode: normal"><g transform="translate(-0.20962,-16.0004) scale(5.33333,5.33333)"><path d="M47.527,19.847c-0.13,-0.102 -1.345,-1.007 -3.908,-1.007c-0.677,0.003 -1.352,0.06 -2.019,0.171c-0.496,-3.354 -3.219,-4.93 -3.345,-5.003l-0.688,-0.392l-0.453,0.644c-0.567,0.866 -1.068,1.76 -1.311,2.763c-0.459,1.915 -0.18,3.713 0.806,5.25c-1.192,0.655 -3.223,0.713 -3.609,0.727h-31.418c-0.826,0.001 -1.496,0.66 -1.501,1.474c-0.037,2.733 0.353,5.553 1.306,8.119c1.089,2.818 2.71,4.894 4.818,6.164c2.362,1.427 6.2,2.243 10.551,2.243c1.965,0.006 3.927,-0.169 5.859,-0.524c2.686,-0.487 5.271,-1.413 7.647,-2.74c1.958,-1.119 3.72,-2.542 5.219,-4.215c2.505,-2.798 3.997,-5.913 5.107,-8.682c0.149,0 0.298,0 0.442,0c2.743,0 4.429,-1.083 5.359,-1.99c0.618,-0.579 1.101,-1.284 1.414,-2.065l0.197,-0.568z"></path><path d="M8,22h-3c-0.552,0 -1,-0.448 -1,-1v-3c0,-0.552 0.448,-1 1,-1h3c0.552,0 1,0.448 1,1v3c0,0.552 -0.448,1 -1,1z"></path><path d="M14,22h-3c-0.552,0 -1,-0.448 -1,-1v-3c0,-0.552 0.448,-1 1,-1h3c0.552,0 1,0.448 1,1v3c0,0.552 -0.448,1 -1,1z"></path><path d="M20,22h-3c-0.552,0 -1,-0.448 -1,-1v-3c0,-0.552 0.448,-1 1,-1h3c0.552,0 1,0.448 1,1v3c0,0.552 -0.448,1 -1,1z"></path><path d="M26,22h-3c-0.552,0 -1,-0.448 -1,-1v-3c0,-0.552 0.448,-1 1,-1h3c0.552,0 1,0.448 1,1v3c0,0.552 -0.448,1 -1,1z"></path><path d="M14,16h-3c-0.552,0 -1,-0.448 -1,-1v-3c0,-0.552 0.448,-1 1,-1h3c0.552,0 1,0.448 1,1v3c0,0.552 -0.448,1 -1,1z"></path><path d="M20,16h-3c-0.552,0 -1,-0.448 -1,-1v-3c0,-0.552 0.448,-1 1,-1h3c0.552,0 1,0.448 1,1v3c0,0.552 -0.448,1 -1,1z"></path><path d="M26,16h-3c-0.552,0 -1,-0.448 -1,-1v-3c0,-0.552 0.448,-1 1,-1h3c0.552,0 1,0.448 1,1v3c0,0.552 -0.448,1 -1,1z"></path><path d="M26,10h-3c-0.552,0 -1,-0.448 -1,-1v-3c0,-0.552 0.448,-1 1,-1h3c0.552,0 1,0.448 1,1v3c0,0.552 -0.448,1 -1,1z"></path><path d="M32,22h-3c-0.552,0 -1,-0.448 -1,-1v-3c0,-0.552 0.448,-1 1,-1h3c0.552,0 1,0.448 1,1v3c0,0.552 -0.448,1 -1,1z"></path></g></g><g fill="#000000" fill-rule="nonzero" stroke="none" stroke-width="1" stroke-linecap="butt" stroke-linejoin="miter" stroke-miterlimit="10" stroke-dasharray="" stroke-dashoffset="0" font-family="none" font-weight="none" font-size="none" text-anchor="none" style="mix-blend-mode: normal"><g><path d="M66.11167,248.32833h-9.39v-30.34h9.33c2.66667,0 5.05333,0.60333 7.16,1.81c2.1,1.2 3.74333,2.90667 4.93,5.12c1.18,2.21333 1.77,4.73 1.77,7.55v0v1.4c0,2.82 -0.58,5.32667 -1.74,7.52c-1.16,2.19333 -2.79667,3.89333 -4.91,5.1c-2.11333,1.21333 -4.49667,1.82667 -7.15,1.84zM66.05167,223.05833h-3.08v20.25h3.02c2.44667,0 4.31333,-0.8 5.6,-2.4c1.29333,-1.6 1.95333,-3.88333 1.98,-6.85v0v-1.61c0,-3.08 -0.63667,-5.41667 -1.91,-7.01c-1.28,-1.58667 -3.15,-2.38 -5.61,-2.38zM83.11167,237.11833v-0.27c0,-2.24 0.43333,-4.23333 1.3,-5.98c0.86,-1.75333 2.09667,-3.10667 3.71,-4.06c1.62,-0.96 3.5,-1.44 5.64,-1.44v0c3.04,0 5.52333,0.93 7.45,2.79c1.92,1.86 2.99333,4.38667 3.22,7.58v0l0.04,1.55c0,3.45333 -0.96667,6.22667 -2.9,8.32c-1.92667,2.08667 -4.51667,3.13 -7.77,3.13c-3.24667,0 -5.84,-1.04 -7.78,-3.12c-1.94,-2.08667 -2.91,-4.92 -2.91,-8.5zM89.14167,237.28833v0c0,2.13333 0.4,3.76667 1.2,4.9c0.80667,1.13333 1.96,1.7 3.46,1.7v0c1.46,0 2.6,-0.56 3.42,-1.68c0.82,-1.11333 1.23,-2.9 1.23,-5.36v0c0,-2.1 -0.41,-3.72667 -1.23,-4.88c-0.82,-1.15333 -1.97333,-1.73 -3.46,-1.73v0c-1.47333,0 -2.61333,0.57333 -3.42,1.72c-0.8,1.14667 -1.2,2.92333 -1.2,5.33zM117.55167,243.88833v0c1.11333,0 2.01667,-0.30667 2.71,-0.92c0.69333,-0.60667 1.05333,-1.41667 1.08,-2.43v0h5.65c-0.01333,1.52667 -0.43,2.92333 -1.25,4.19c-0.82,1.27333 -1.94333,2.26 -3.37,2.96c-1.42,0.7 -2.99,1.05 -4.71,1.05v0c-3.22667,0 -5.77,-1.02333 -7.63,-3.07c-1.86,-2.04667 -2.79,-4.87667 -2.79,-8.49v0v-0.39c0,-3.47333 0.92333,-6.24667 2.77,-8.32c1.84667,-2.06667 4.38,-3.1 7.6,-3.1v0c2.82,0 5.08333,0.8 6.79,2.4c1.7,1.60667 2.56333,3.74333 2.59,6.41v0h-5.65c-0.02667,-1.16667 -0.38667,-2.11333 -1.08,-2.84c-0.69333,-0.73333 -1.61,-1.1 -2.75,-1.1v0c-1.4,0 -2.46,0.51 -3.18,1.53c-0.71333,1.02667 -1.07,2.68333 -1.07,4.97v0v0.63c0,2.32 0.35333,3.98667 1.06,5c0.71333,1.01333 1.79,1.52 3.23,1.52zM144.41167,248.32833l-5.8,-9.04l-2.16,2.16v6.88h-6.02v-32h6.02v17.73l1.16,-1.5l5.77,-6.77h7.23l-8.14,9.39l8.85,13.15zM163.18167,248.73833v0c-3.30667,0 -6,-1.01333 -8.08,-3.04c-2.07333,-2.02667 -3.11,-4.72667 -3.11,-8.1v0v-0.59c0,-2.26 0.43667,-4.28333 1.31,-6.07c0.87333,-1.78667 2.11333,-3.16 3.72,-4.12c1.60667,-0.96667 3.43667,-1.45 5.49,-1.45v0c3.08,0 5.50667,0.97333 7.28,2.92c1.77333,1.94 2.66,4.69667 2.66,8.27v0v2.45h-14.36c0.19333,1.47333 0.78,2.65667 1.76,3.55c0.98,0.88667 2.22,1.33 3.72,1.33v0c2.32,0 4.13333,-0.84 5.44,-2.52v0l2.96,3.31c-0.90667,1.28 -2.13,2.27667 -3.67,2.99c-1.54,0.71333 -3.24667,1.07 -5.12,1.07zM162.49167,230.23833v0c-1.19333,0 -2.16333,0.40333 -2.91,1.21c-0.74,0.80667 -1.21333,1.96 -1.42,3.46v0h8.37v-0.48c-0.02667,-1.33333 -0.38667,-2.36333 -1.08,-3.09c-0.69333,-0.73333 -1.68,-1.1 -2.96,-1.1zM188.61167,225.63833l-0.08,5.79c-0.82,-0.11333 -1.54333,-0.17 -2.17,-0.17v0c-2.27333,0 -3.76667,0.77333 -4.48,2.32v0v14.75h-6.02v-22.54h5.69l0.17,2.68c1.20667,-2.06667 2.88,-3.1 5.02,-3.1v0c0.66667,0 1.29,0.09 1.87,0.27z"></path></g></g></svg>
