<svg xmlns="http://www.w3.org/2000/svg" xmlns:xlink="http://www.w3.org/1999/xlink" viewBox="0,0,256,256" width="50px" height="50px"><g fill="none" fill-rule="nonzero" stroke="none" stroke-width="1" stroke-linecap="butt" stroke-linejoin="miter" stroke-miterlimit="10" stroke-dasharray="" stroke-dashoffset="0" font-family="none" font-weight="none" font-size="none" text-anchor="none" style="mix-blend-mode: normal"><g transform="translate(-0.53333,-21.33333) scale(5.33333,5.33333)"><path d="M41,5h-34l3,34l14,4l14,-4l3,-34z" fill="#0277bd"></path><path d="M24,8v31.9l11.2,-3.2l2.5,-28.7z" fill="#039be5"></path><path d="M33.1,13h-9.1v4h4.9l-0.3,4h-4.6v4h4.4l-0.3,4.5l-4.1,1.4v4.2l7.9,-2.6l0.7,-11.5v0z" fill="#ffffff"></path><path d="M24,13v4h-8.9l-0.3,-4zM19.4,21l0.2,4h4.4v-4zM19.8,27h-4l0.3,5.5l7.9,2.6v-4.2l-4.1,-1.4z" fill="#eeeeee"></path></g></g><g fill="#000000" fill-rule="nonzero" stroke="none" stroke-width="1" stroke-linecap="butt" stroke-linejoin="miter" stroke-miterlimit="10" stroke-dasharray="" stroke-dashoffset="0" font-family="none" font-weight="none" font-size="none" text-anchor="none" style="mix-blend-mode: normal"><g><path d="M109.92167,233.225h5.47c-0.20667,2.86 -1.26333,5.11 -3.17,6.75c-1.9,1.64 -4.40667,2.46 -7.52,2.46v0c-3.4,0 -6.07667,-1.14667 -8.03,-3.44c-1.94667,-2.28667 -2.92,-5.43 -2.92,-9.43v0v-1.62c0,-2.55333 0.45,-4.80333 1.35,-6.75c0.9,-1.94667 2.18333,-3.43667 3.85,-4.47c1.67333,-1.04 3.61667,-1.56 5.83,-1.56v0c3.06,0 5.52667,0.82 7.4,2.46c1.86667,1.64 2.94667,3.94333 3.24,6.91v0h-5.47c-0.13333,-1.71333 -0.61,-2.95667 -1.43,-3.73c-0.82,-0.77333 -2.06667,-1.16 -3.74,-1.16v0c-1.82667,0 -3.19333,0.65333 -4.1,1.96c-0.9,1.30667 -1.36333,3.33333 -1.39,6.08v0v2.01c0,2.86667 0.43333,4.96 1.3,6.28c0.87333,1.32667 2.24333,1.99 4.11,1.99v0c1.69333,0 2.95667,-0.38667 3.79,-1.16c0.82667,-0.76667 1.30333,-1.96 1.43,-3.58zM132.74167,235.105v0c0,-1.03333 -0.36333,-1.82667 -1.09,-2.38c-0.73333,-0.55333 -2.04667,-1.13667 -3.94,-1.75c-1.9,-0.61333 -3.4,-1.21667 -4.5,-1.81v0c-3.01333,-1.63333 -4.52,-3.82667 -4.52,-6.58v0c0,-1.43333 0.40333,-2.71333 1.21,-3.84c0.80667,-1.12667 1.96667,-2.00333 3.48,-2.63c1.51333,-0.63333 3.21,-0.95 5.09,-0.95v0c1.9,0 3.59,0.34333 5.07,1.03c1.48667,0.68667 2.64,1.65333 3.46,2.9c0.82,1.25333 1.23,2.67667 1.23,4.27v0h-5.47c0,-1.21333 -0.38333,-2.15667 -1.15,-2.83c-0.76667,-0.68 -1.84333,-1.02 -3.23,-1.02v0c-1.33333,0 -2.37,0.28333 -3.11,0.85c-0.74667,0.56667 -1.12,1.31 -1.12,2.23v0c0,0.86667 0.43667,1.59 1.31,2.17c0.86667,0.58667 2.14333,1.13333 3.83,1.64v0c3.11333,0.94 5.38,2.10333 6.8,3.49c1.42667,1.38 2.14,3.10333 2.14,5.17v0c0,2.3 -0.87,4.10333 -2.61,5.41c-1.74,1.30667 -4.08,1.96 -7.02,1.96v0c-2.04,0 -3.9,-0.37333 -5.58,-1.12c-1.67333,-0.74667 -2.95,-1.77 -3.83,-3.07c-0.88667,-1.30667 -1.33,-2.81667 -1.33,-4.53v0h5.49c0,2.93333 1.75,4.4 5.25,4.4v0c1.3,0 2.31667,-0.26667 3.05,-0.8c0.72667,-0.52667 1.09,-1.26333 1.09,-2.21zM155.69167,235.105v0c0,-1.03333 -0.36333,-1.82667 -1.09,-2.38c-0.73333,-0.55333 -2.04667,-1.13667 -3.94,-1.75c-1.89333,-0.61333 -3.39333,-1.21667 -4.5,-1.81v0c-3.01333,-1.63333 -4.52,-3.82667 -4.52,-6.58v0c0,-1.43333 0.40333,-2.71333 1.21,-3.84c0.80667,-1.12667 1.96667,-2.00333 3.48,-2.63c1.51333,-0.63333 3.21,-0.95 5.09,-0.95v0c1.9,0 3.59,0.34333 5.07,1.03c1.48667,0.68667 2.64,1.65333 3.46,2.9c0.82,1.25333 1.23,2.67667 1.23,4.27v0h-5.47c0,-1.21333 -0.38333,-2.15667 -1.15,-2.83c-0.76667,-0.68 -1.84333,-1.02 -3.23,-1.02v0c-1.33333,0 -2.37,0.28333 -3.11,0.85c-0.74667,0.56667 -1.12,1.31 -1.12,2.23v0c0,0.86667 0.43667,1.59 1.31,2.17c0.86667,0.58667 2.14667,1.13333 3.84,1.64v0c3.10667,0.94 5.37,2.10333 6.79,3.49c1.42667,1.38 2.14,3.10333 2.14,5.17v0c0,2.3 -0.87,4.10333 -2.61,5.41c-1.74,1.30667 -4.08,1.96 -7.02,1.96v0c-2.04,0 -3.9,-0.37333 -5.58,-1.12c-1.67333,-0.74667 -2.95,-1.77 -3.83,-3.07c-0.88,-1.30667 -1.32,-2.81667 -1.32,-4.53v0h5.48c0,2.93333 1.75,4.4 5.25,4.4v0c1.3,0 2.31667,-0.26667 3.05,-0.8c0.72667,-0.52667 1.09,-1.26333 1.09,-2.21z"></path></g></g></svg>
