<svg xmlns="http://www.w3.org/2000/svg" xmlns:xlink="http://www.w3.org/1999/xlink" viewBox="0,0,256,256" width="96px" height="96px"><g fill="none" fill-rule="nonzero" stroke="none" stroke-width="1" stroke-linecap="butt" stroke-linejoin="miter" stroke-miterlimit="10" stroke-dasharray="" stroke-dashoffset="0" font-family="none" font-weight="none" font-size="none" text-anchor="none" style="mix-blend-mode: normal"><g transform="translate(0,-21.33333) scale(5.33333,5.33333)"><path d="M42,17.3c0,20.5 -18,26.7 -18,26.7c0,0 -18,-6.2 -18,-26.7c0,-2.5 0.2,-4.6 0.4,-6.3c0.3,-2.5 2,-4.5 4.4,-5.1c3.1,-0.9 8,-1.9 13.2,-1.9c5.2,0 10.1,1 13.3,1.9c2.4,0.6 4.1,2.7 4.4,5.1c0.1,1.7 0.3,3.9 0.3,6.3z" fill="#5d4037"></path><path d="M24,7c4.9,0 9.5,1 12.5,1.8c1.2,0.3 2,1.3 2.2,2.6c0.2,1.9 0.3,3.9 0.3,5.9c0,15.6 -11.5,21.9 -15,23.4c-3.5,-1.6 -15,-7.9 -15,-23.4c0,-2 0.1,-4 0.3,-5.9c0.1,-1.3 1,-2.3 2.2,-2.6c3,-0.8 7.6,-1.8 12.5,-1.8M24,4c-5.2,0 -10.1,1 -13.3,1.9c-2.3,0.6 -4.1,2.7 -4.3,5.1c-0.2,1.7 -0.4,3.9 -0.4,6.3c0,20.5 18,26.7 18,26.7c0,0 18,-6.2 18,-26.7c0,-2.5 -0.2,-4.6 -0.4,-6.3c-0.3,-2.5 -2,-4.5 -4.4,-5.1c-3.1,-0.9 -8,-1.9 -13.2,-1.9z" fill="#4caf50"></path><path d="M23,28h2v8h-2z" fill="#dcedc8"></path><path d="M24,10c0,0 -6,5 -6,13c0,5.2 3.3,8.5 5,10l1,-3l1,3c1.7,-1.5 5,-4.8 5,-10c0,-8 -6,-13 -6,-13z" fill="#4caf50"></path><path d="M24,10c0,0 -6,5 -6,13c0,5.2 3.3,8.5 5,10l1,-3z" fill="#81c784"></path></g></g><g fill="#000000" fill-rule="nonzero" stroke="none" stroke-width="1" stroke-linecap="butt" stroke-linejoin="miter" stroke-miterlimit="10" stroke-dasharray="" stroke-dashoffset="0" font-family="none" font-weight="none" font-size="none" text-anchor="none" style="mix-blend-mode: normal"><g><path d="M48.50167,216.445h7.15l6.81,19.25l6.78,-19.25h7.19v26.54h-5.49v-7.25l0.55,-12.53l-7.17,19.78h-3.75l-7.15,-19.76l0.55,12.51v7.25h-5.47zM80.04167,233.185v-0.24c0,-1.96 0.37667,-3.70333 1.13,-5.23c0.75333,-1.53333 1.83667,-2.72 3.25,-3.56c1.41333,-0.84 3.05667,-1.26 4.93,-1.26v0c2.66,0 4.83333,0.81667 6.52,2.45c1.68,1.62667 2.61667,3.83667 2.81,6.63v0l0.04,1.35c0,3.02667 -0.84333,5.45333 -2.53,7.28c-1.69333,1.83333 -3.96,2.75 -6.8,2.75c-2.84667,0 -5.11667,-0.91333 -6.81,-2.74c-1.69333,-1.82 -2.54,-4.29667 -2.54,-7.43zM85.30167,233.325v0c0,1.87333 0.35333,3.30333 1.06,4.29c0.70667,0.99333 1.71667,1.49 3.03,1.49v0c1.27333,0 2.27,-0.49 2.99,-1.47c0.71333,-0.97333 1.07,-2.53667 1.07,-4.69v0c0,-1.83333 -0.35667,-3.25667 -1.07,-4.27c-0.72,-1.00667 -1.73,-1.51 -3.03,-1.51v0c-1.28667,0 -2.28333,0.5 -2.99,1.5c-0.70667,1.00667 -1.06,2.56 -1.06,4.66zM101.86167,223.265h4.95l0.17,2.28c1.40667,-1.76667 3.29667,-2.65 5.67,-2.65v0c2.08667,0 3.64,0.61667 4.66,1.85c1.02667,1.22667 1.55,3.06 1.57,5.5v0v12.74h-5.27v-12.61c0,-1.12 -0.24,-1.93 -0.72,-2.43c-0.48667,-0.50667 -1.29667,-0.76 -2.43,-0.76v0c-1.48,0 -2.59333,0.63 -3.34,1.89v0v13.91h-5.26zM122.11167,233.195v-0.21c0,-3.02667 0.72,-5.46333 2.16,-7.31c1.44,-1.85333 3.38,-2.78 5.82,-2.78v0c2.16667,0 3.85,0.74333 5.05,2.23v0l0.22,-1.86h4.78v19.07c0,1.72667 -0.39333,3.22667 -1.18,4.5c-0.78,1.27333 -1.88333,2.24667 -3.31,2.92c-1.42,0.66667 -3.08333,1 -4.99,1v0c-1.44667,0 -2.85667,-0.29 -4.23,-0.87c-1.37333,-0.57333 -2.41333,-1.31667 -3.12,-2.23v0l2.34,-3.21c1.30667,1.47333 2.89667,2.21 4.77,2.21v0c1.4,0 2.48667,-0.37333 3.26,-1.12c0.78,-0.74667 1.17,-1.80667 1.17,-3.18v0v-1.06c-1.21333,1.37333 -2.81,2.06 -4.79,2.06v0c-2.37333,0 -4.29,-0.92667 -5.75,-2.78c-1.46667,-1.85333 -2.2,-4.31333 -2.2,-7.38zM127.38167,233.365v0c0,1.78667 0.35667,3.18667 1.07,4.2c0.72,1.01333 1.70667,1.52 2.96,1.52v0c1.6,0 2.74667,-0.6 3.44,-1.8v0v-8.3c-0.70667,-1.2 -1.84333,-1.8 -3.41,-1.8v0c-1.26,0 -2.25333,0.51667 -2.98,1.55c-0.72,1.03333 -1.08,2.57667 -1.08,4.63zM143.36167,233.185v-0.24c0,-1.96 0.37667,-3.70333 1.13,-5.23c0.75333,-1.53333 1.84,-2.72 3.26,-3.56c1.41333,-0.84 3.05667,-1.26 4.93,-1.26v0c2.66,0 4.83333,0.81667 6.52,2.45c1.68,1.62667 2.61667,3.83667 2.81,6.63v0l0.04,1.35c0,3.02667 -0.84333,5.45333 -2.53,7.28c-1.69333,1.83333 -3.96,2.75 -6.8,2.75c-2.84667,0 -5.11667,-0.91333 -6.81,-2.74c-1.7,-1.82 -2.55,-4.29667 -2.55,-7.43zM148.63167,233.325v0c0,1.87333 0.35333,3.30333 1.06,4.29c0.70667,0.99333 1.71667,1.49 3.03,1.49v0c1.27333,0 2.27,-0.49 2.99,-1.47c0.71333,-0.97333 1.07,-2.53667 1.07,-4.69v0c0,-1.83333 -0.35667,-3.25667 -1.07,-4.27c-0.72,-1.00667 -1.73,-1.51 -3.03,-1.51v0c-1.28667,0 -2.28333,0.5 -2.99,1.5c-0.70667,1.00667 -1.06,2.56 -1.06,4.66zM173.86167,242.985h-8.22v-26.54h8.17c2.33333,0 4.42,0.52667 6.26,1.58c1.84,1.05333 3.27667,2.54667 4.31,4.48c1.03333,1.94 1.55,4.14333 1.55,6.61v0v1.22c0,2.46667 -0.50667,4.66 -1.52,6.58c-1.01333,1.92 -2.44667,3.41 -4.3,4.47c-1.84667,1.06 -3.93,1.59333 -6.25,1.6zM173.81167,220.875h-2.7v17.72h2.64c2.14,0 3.77667,-0.7 4.91,-2.1c1.12667,-1.39333 1.70333,-3.39 1.73,-5.99v0v-1.41c0,-2.69333 -0.56,-4.73667 -1.68,-6.13c-1.12,-1.39333 -2.75333,-2.09 -4.9,-2.09zM200.22167,242.985h-10.32v-26.54h9.3c3.22,0 5.66333,0.61667 7.33,1.85c1.66667,1.23333 2.5,3.04333 2.5,5.43v0c0,1.3 -0.33667,2.44333 -1.01,3.43c-0.66667,0.99333 -1.59667,1.72 -2.79,2.18v0c1.36667,0.34 2.44,1.02667 3.22,2.06c0.78667,1.03333 1.18,2.29667 1.18,3.79v0c0,2.55333 -0.81667,4.48667 -2.45,5.8c-1.62667,1.31333 -3.94667,1.98 -6.96,2zM200.39167,231.435h-5.02v7.16h4.69c1.28667,0 2.29,-0.30667 3.01,-0.92c0.72667,-0.61333 1.09,-1.46 1.09,-2.54v0c0,-2.43333 -1.25667,-3.66667 -3.77,-3.7zM195.37167,220.875v6.69h4.05c2.76,-0.04667 4.14,-1.14667 4.14,-3.3v0c0,-1.2 -0.35,-2.06667 -1.05,-2.6c-0.7,-0.52667 -1.80333,-0.79 -3.31,-0.79v0z"></path></g></g></svg>