<svg xmlns="http://www.w3.org/2000/svg" xmlns:xlink="http://www.w3.org/1999/xlink" viewBox="0,0,256,256" width="50px" height="50px"><g fill="none" fill-rule="nonzero" stroke="none" stroke-width="1" stroke-linecap="butt" stroke-linejoin="miter" stroke-miterlimit="10" stroke-dasharray="" stroke-dashoffset="0" font-family="none" font-weight="none" font-size="none" text-anchor="none" style="mix-blend-mode: normal"><g transform="translate(-0.53333,-21.33038) scale(5.33333,5.33333)"><path d="M23.65,24.898c-0.998,-1.609 -1.722,-2.943 -2.725,-5.455c-1.696,-4.243 10.315,-8.077 5.445,-15.444c2.111,5.089 -7.577,8.235 -8.477,12.473c-0.823,3.898 5.752,8.426 5.757,8.426z" fill="#f44336"></path><path d="M23.878,17.27c-0.192,2.516 2.229,3.857 2.299,5.695c0.056,1.496 -1.447,2.743 -1.447,2.743c0,0 2.728,-0.536 3.579,-2.818c0.945,-2.534 -1.834,-4.269 -1.548,-6.298c0.267,-1.938 6.031,-5.543 6.031,-5.543c0,0 -8.481,0.562 -8.914,6.221z" fill="#f44336"></path><g fill="#1565c0"><path d="M32.084,25.055c1.754,-0.394 3.233,0.723 3.233,2.01c0,2.901 -4.021,5.643 -4.021,5.643c0,0 6.225,-0.742 6.225,-5.505c0,-3.15 -3.057,-3.937 -5.437,-2.148zM29.129,27.395c0,0 1.941,-1.383 2.458,-1.902c-4.763,1.011 -15.638,1.147 -15.638,0.269c0,-0.809 3.507,-1.638 3.507,-1.638c0,0 -7.773,-0.112 -7.773,2.181c0,2.39 10.175,2.561 17.446,1.09z"></path><path d="M27.935,29.571c-4.509,1.499 -12.814,1.02 -10.354,-0.993c-1.198,0 -2.974,0.963 -2.974,1.889c0,1.857 8.982,3.291 15.63,0.572z"></path><path d="M18.686,32.739c-1.636,0 -2.695,1.054 -2.695,1.822c0,2.391 9.76,2.632 13.627,0.205l-2.458,-1.632c-2.889,1.27 -10.146,1.445 -8.474,-0.395z"></path><path d="M36.281,36.632c0,-0.936 -1.055,-1.377 -1.433,-1.588c2.228,5.373 -22.317,4.956 -22.317,1.784c0,-0.721 1.807,-1.427 3.477,-1.093l-1.42,-0.839c-3.328,-0.522 -5.588,0.941 -5.588,2.121c0,5.503 27.281,5.238 27.281,-0.385z"></path><path d="M39,38.604c-4.146,4.095 -14.659,5.587 -25.231,3.057c10.572,4.503 25.181,1.967 25.231,-3.057z"></path></g></g></g><g fill="#000000" fill-rule="nonzero" stroke="none" stroke-width="1" stroke-linecap="butt" stroke-linejoin="miter" stroke-miterlimit="10" stroke-dasharray="" stroke-dashoffset="0" font-family="none" font-weight="none" font-size="none" text-anchor="none" style="mix-blend-mode: normal"><g><path d="M101.18667,235.85833v-18.38h5.47v18.38c0,1.68667 -0.37333,3.17667 -1.12,4.47c-0.74667,1.29333 -1.8,2.29333 -3.16,3c-1.36667,0.70667 -2.90667,1.06 -4.62,1.06v0c-2.80667,0 -4.99333,-0.71333 -6.56,-2.14c-1.56667,-1.43333 -2.35,-3.45667 -2.35,-6.07v0h5.5c0,1.30667 0.27333,2.26667 0.82,2.88c0.54667,0.62 1.41,0.93 2.59,0.93v0c1.04667,0 1.88,-0.35667 2.5,-1.07c0.62,-0.72 0.93,-1.74 0.93,-3.06zM127.74667,244.01833h-5.32c-0.24667,-0.47333 -0.42333,-1.06 -0.53,-1.76v0c-1.28,1.42 -2.94,2.13 -4.98,2.13v0c-1.93333,0 -3.53333,-0.56 -4.8,-1.68c-1.27333,-1.12 -1.91,-2.53 -1.91,-4.23v0c0,-2.08667 0.77667,-3.69 2.33,-4.81c1.54667,-1.12 3.78667,-1.68667 6.72,-1.7v0h2.42v-1.13c0,-0.90667 -0.23333,-1.63333 -0.7,-2.18c-0.46667,-0.54667 -1.20667,-0.82 -2.22,-0.82v0c-0.88667,0 -1.58,0.21 -2.08,0.63c-0.50667,0.42667 -0.76,1.01 -0.76,1.75v0h-5.27c0,-1.14 0.35333,-2.19667 1.06,-3.17c0.70667,-0.97333 1.70333,-1.73667 2.99,-2.29c1.28667,-0.55333 2.73333,-0.83 4.34,-0.83v0c2.42667,0 4.35333,0.61333 5.78,1.84c1.43333,1.22 2.15,2.93667 2.15,5.15v0v8.55c0.00667,1.86667 0.26667,3.28 0.78,4.24v0zM118.06667,240.35833v0c0.78,0 1.49667,-0.17333 2.15,-0.52c0.66,-0.34667 1.14667,-0.81 1.46,-1.39v0v-3.4h-1.97c-2.63333,0 -4.03667,0.91333 -4.21,2.74v0l-0.02,0.31c0,0.65333 0.23,1.19333 0.69,1.62c0.46667,0.42667 1.1,0.64 1.9,0.64zM134.45667,224.29833l3.66,13.29l3.67,-13.29h5.5l-6.65,19.72h-5.03l-6.66,-19.72zM166.08667,244.01833h-5.33c-0.24,-0.47333 -0.41667,-1.06 -0.53,-1.76v0c-1.27333,1.42 -2.93,2.13 -4.97,2.13v0c-1.93333,0 -3.53667,-0.56 -4.81,-1.68c-1.26667,-1.12 -1.9,-2.53 -1.9,-4.23v0c0,-2.08667 0.77333,-3.69 2.32,-4.81c1.55333,-1.12 3.79333,-1.68667 6.72,-1.7v0h2.43v-1.13c0,-0.90667 -0.23667,-1.63333 -0.71,-2.18c-0.46667,-0.54667 -1.20333,-0.82 -2.21,-0.82v0c-0.88667,0 -1.58333,0.21 -2.09,0.63c-0.5,0.42667 -0.75,1.01 -0.75,1.75v0h-5.27c0,-1.14 0.35,-2.19667 1.05,-3.17c0.70667,-0.97333 1.70333,-1.73667 2.99,-2.29c1.29333,-0.55333 2.74,-0.83 4.34,-0.83v0c2.43333,0 4.36333,0.61333 5.79,1.84c1.42667,1.22 2.14,2.93667 2.14,5.15v0v8.55c0.01333,1.86667 0.27667,3.28 0.79,4.24v0zM156.40667,240.35833v0c0.77333,0 1.49,-0.17333 2.15,-0.52c0.65333,-0.34667 1.14,-0.81 1.46,-1.39v0v-3.4h-1.97c-2.64,0 -4.04333,0.91333 -4.21,2.74v0l-0.02,0.31c0,0.65333 0.23,1.19333 0.69,1.62c0.46,0.42667 1.09333,0.64 1.9,0.64z"></path></g></g></svg>
