<svg xmlns="http://www.w3.org/2000/svg" xmlns:xlink="http://www.w3.org/1999/xlink" viewBox="0,0,256,256" width="96px" height="96px"><g fill="none" fill-rule="nonzero" stroke="none" stroke-width="1" stroke-linecap="butt" stroke-linejoin="miter" stroke-miterlimit="10" stroke-dasharray="" stroke-dashoffset="0" font-family="none" font-weight="none" font-size="none" text-anchor="none" style="mix-blend-mode: normal"><g transform="translate(5.03253,-26.664) scale(5.33333,5.33333)"><path d="M44.083,29.79c-0.183,-0.829 -0.935,-1.796 -2.452,-1.796c-0.31,0 -0.649,0.039 -1.035,0.119c-0.708,0.146 -1.311,0.217 -1.842,0.241c4.133,-7.04 6.816,-16.819 4.159,-20.214c-3.501,-4.473 -8.214,-5.141 -10.711,-5.141l-0.235,0.001c-0.929,0.015 -1.893,0.129 -2.863,0.339l-3.583,0.774c-0.488,-0.061 -0.985,-0.104 -1.503,-0.113h-0.03h-0.016l-0.152,-0.001c-1.593,0 -3.046,0.338 -4.341,0.973l-1.251,-0.493c-1.72,-0.678 -4.308,-1.485 -6.868,-1.485c-0.144,0 -0.287,0.003 -0.431,0.008c-2.522,0.091 -4.688,1.048 -6.265,2.767c-1.968,2.146 -2.864,5.285 -2.661,9.331c0.01,0.209 2.458,20.9 9.397,20.9h0.025l0.064,-0.001c0.901,-0.022 1.76,-0.384 2.563,-1.077c0.613,0.46 1.406,0.732 2.145,0.84c0.488,0.115 1.366,0.278 2.418,0.278c1.284,0 2.442,-0.263 3.44,-0.738c-0.001,0.88 -0.006,1.994 -0.016,3.418l-0.001,0.075l0.005,0.075c0.097,1.419 0.342,2.698 0.711,3.701c1.051,2.859 2.866,4.434 5.111,4.434c0.093,0 0.188,-0.003 0.284,-0.009c1.846,-0.114 3.717,-1.151 5.004,-2.772c1.393,-1.755 1.715,-3.607 1.839,-5.026l0.008,-0.087v-0.088v-4.079l0.103,0.01l0.436,0.038l0.042,0.004l0.042,0.002c0.124,0.006 0.252,0.008 0.381,0.008c1.507,0 3.362,-0.391 4.616,-0.974c1.199,-0.556 3.939,-2.084 3.463,-4.242z" fill="#ffffff"></path><path d="M33,34c0,-0.205 0.012,-0.376 0.018,-0.565c-0.01,-0.251 -0.018,-0.435 -0.018,-0.435c0,0 0.012,-0.009 0.032,-0.022c0.149,-2.673 0.886,-3.703 1.675,-4.29c-0.11,-0.153 -0.237,-0.318 -0.356,-0.475c-0.333,-0.437 -0.748,-0.979 -1.192,-1.674l-0.082,-0.158c-0.067,-0.164 -0.229,-0.447 -0.435,-0.819c-1.183,-2.14 -3.645,-6.592 -1.96,-9.404c0.738,-1.232 2.122,-1.942 4.121,-2.117c-0.817,-2.323 -3.878,-7.926 -10.818,-8.041c-0.002,0 -0.004,0 -0.006,0c-6.041,-0.098 -8.026,5.392 -8.672,8.672c0.89,-0.377 1.906,-0.606 2.836,-0.606c0.014,0 0.029,0 0.043,0c2.29,0.017 3.865,1.239 4.323,3.354c0.335,1.552 0.496,2.91 0.492,4.153c-0.01,2.719 -0.558,4.149 -1.042,5.411l-0.154,0.408c-0.124,0.334 -0.255,0.645 -0.379,0.937c-0.126,0.298 -0.237,0.563 -0.318,0.802c0.484,0.11 0.864,0.265 1.125,0.38l0.151,0.066c0.047,0.02 0.094,0.043 0.137,0.069c0.848,0.516 1.376,1.309 1.489,2.233c0.061,0.498 0.051,3.893 0.03,6.855c0.087,1.285 0.305,2.364 0.593,3.146c0.409,1.114 1.431,3.241 3.394,3.119c1.37,-0.085 2.687,-0.919 3.561,-2.019c0.938,-1.181 1.284,-2.487 1.414,-3.958v-5.022z" fill="#0277bd"></path><path d="M15.114,28.917c-1.613,-1.683 -2.399,-3.947 -2.104,-6.056c0.285,-2.035 0.124,-4.027 0.037,-5.098c-0.029,-0.357 -0.048,-0.623 -0.047,-0.77c0,-0.008 0.002,-0.015 0.003,-0.023c0,-0.004 -0.002,-0.007 -0.002,-0.011c0.121,-3.021 1.286,-7.787 4.493,-10.62c-1.562,-0.615 -4.106,-1.426 -6.494,-1.339c-3.742,0.136 -7.364,2.724 -7,10c0.137,2.73 3.222,19.103 7.44,19c0.603,-0.015 1.229,-0.402 1.872,-1.176c1.017,-1.223 2.005,-2.332 2.708,-3.104c-0.315,-0.239 -0.619,-0.503 -0.906,-0.803zM37.023,14.731c0.015,0.154 0.002,0.286 -0.022,0.408c0.031,0.92 -0.068,1.813 -0.169,2.677c-0.074,0.636 -0.15,1.293 -0.171,1.952c-0.021,0.645 0.07,1.282 0.166,1.956c0.225,1.578 0.459,3.359 -0.765,5.437c0.225,0.296 0.423,0.571 0.581,0.837c4.61,-7.475 6.468,-16.361 4.695,-18.626c-2.683,-3.428 -6.397,-4.42 -9.339,-4.372c-0.921,0.015 -1.758,0.139 -2.473,0.294c5.076,2.46 7.337,7.732 7.497,9.437zM41,30.071c-2.665,0.55 -3.947,0.257 -4.569,-0.126c-0.1,0.072 -0.2,0.133 -0.293,0.19c-0.372,0.225 -0.961,0.583 -1.105,2.782c0.083,0.016 0.156,0.025 0.246,0.044l0.435,0.039c1.32,0.06 3.049,-0.31 4.063,-0.781c2.185,-1.014 3.376,-2.592 1.223,-2.148zM22.023,32.119c-0.037,-0.298 -0.198,-0.539 -0.492,-0.732l-0.108,-0.047c-0.361,-0.159 -0.77,-0.34 -1.423,-0.34h-0.004c-0.127,0.01 -0.253,0.019 -0.38,0.019c-0.052,0 -0.103,-0.007 -0.155,-0.009c-0.474,0.365 -1.148,0.647 -2.816,0.99c-2.98,0.759 -1.221,1.655 -0.078,1.794c1.106,0.277 3.735,0.614 5.481,-0.809c-0.005,-0.448 -0.013,-0.756 -0.025,-0.866z" fill="#0277bd"></path><path d="M20.681,18.501c-0.292,0.302 -0.753,0.566 -1.262,0.484c-0.828,-0.134 -1.463,-1.133 -1.417,-1.508v0c0.044,-0.374 0.751,-0.569 1.578,-0.435c0.287,0.047 0.548,0.128 0.768,0.228c-0.32,-0.688 -0.899,-1.085 -1.782,-1.182c-1.565,-0.174 -3.226,0.644 -3.56,1.097c0.007,0.11 0.02,0.251 0.033,0.417c0.093,1.147 0.265,3.284 -0.05,5.537c-0.208,1.485 0.393,3.169 1.567,4.395c0.757,0.79 1.641,1.29 2.513,1.438c0.111,-0.478 0.309,-0.944 0.513,-1.425c0.113,-0.265 0.233,-0.547 0.346,-0.852l0.162,-0.427c0.443,-1.155 0.9,-2.35 0.909,-4.703c0.004,-0.905 -0.107,-1.938 -0.318,-3.064zM34.847,22.007c-0.104,-0.729 -0.211,-1.484 -0.185,-2.303c0.023,-0.742 0.105,-1.442 0.184,-2.119c0.062,-0.533 0.11,-1.045 0.138,-1.55c-1.289,0.107 -2.145,0.479 -2.551,1.108c0.168,-0.057 0.358,-0.102 0.568,-0.129c0.892,-0.116 1.543,0.141 1.618,0.637c0.055,0.363 -0.253,0.705 -0.388,0.836c-0.277,0.269 -0.626,0.442 -0.981,0.488c-0.064,0.008 -0.129,0.012 -0.192,0.012c-0.353,0 -0.69,-0.121 -0.949,-0.3c0.112,1.973 1.567,4.612 2.283,5.907c0.153,0.277 0.271,0.498 0.369,0.688c0.393,-1.119 0.248,-2.139 0.086,-3.275z" fill="#0277bd"></path></g></g><g fill="#000000" fill-rule="nonzero" stroke="none" stroke-width="1" stroke-linecap="butt" stroke-linejoin="miter" stroke-miterlimit="10" stroke-dasharray="" stroke-dashoffset="0" font-family="none" font-weight="none" font-size="none" text-anchor="none" style="mix-blend-mode: normal"><g><path d="M40.66167,233.815h-4.79v9.35h-5.47v-26.54h10.35c1.99333,0 3.74667,0.36667 5.26,1.1c1.51333,0.72667 2.67667,1.76 3.49,3.1c0.82,1.34667 1.23,2.87667 1.23,4.59v0c0,2.6 -0.89333,4.65 -2.68,6.15c-1.78,1.5 -4.24333,2.25 -7.39,2.25zM35.87167,221.055v8.33h4.88c1.44667,0 2.55,-0.34 3.31,-1.02c0.76,-0.68 1.14,-1.65333 1.14,-2.92v0c0,-1.3 -0.38333,-2.35 -1.15,-3.15c-0.76667,-0.8 -1.82333,-1.21333 -3.17,-1.24v0zM53.08167,233.365v-0.24c0,-1.96 0.37667,-3.70333 1.13,-5.23c0.75333,-1.53333 1.83667,-2.72 3.25,-3.56c1.41333,-0.84 3.05667,-1.26 4.93,-1.26v0c2.66,0 4.83333,0.81667 6.52,2.45c1.68,1.62667 2.62,3.83667 2.82,6.63v0l0.03,1.35c0,3.02667 -0.84333,5.45333 -2.53,7.28c-1.69333,1.83333 -3.96,2.75 -6.8,2.75c-2.84667,0 -5.11667,-0.91333 -6.81,-2.74c-1.69333,-1.82 -2.54,-4.29667 -2.54,-7.43zM58.35167,233.505v0c0,1.87333 0.35,3.30333 1.05,4.29c0.70667,0.99333 1.71667,1.49 3.03,1.49v0c1.27333,0 2.27,-0.49 2.99,-1.47c0.71333,-0.97333 1.07,-2.53667 1.07,-4.69v0c0,-1.83333 -0.35667,-3.25667 -1.07,-4.27c-0.72,-1.00667 -1.73,-1.51 -3.03,-1.51v0c-1.28667,0 -2.28333,0.5 -2.99,1.5c-0.7,1.00667 -1.05,2.56 -1.05,4.66zM85.69167,237.715v0c0,-0.64 -0.32,-1.14667 -0.96,-1.52c-0.64,-0.37333 -1.66333,-0.70333 -3.07,-0.99v0c-4.69333,-0.98667 -7.04,-2.98 -7.04,-5.98v0c0,-1.75333 0.72667,-3.21667 2.18,-4.39c1.45333,-1.17333 3.35333,-1.76 5.7,-1.76v0c2.5,0 4.50333,0.59 6.01,1.77c1.5,1.18 2.25,2.71333 2.25,4.6v0h-5.27c0,-0.75333 -0.24333,-1.37667 -0.73,-1.87c-0.48667,-0.49333 -1.24667,-0.74 -2.28,-0.74v0c-0.88667,0 -1.57333,0.2 -2.06,0.6c-0.48667,0.4 -0.73,0.91 -0.73,1.53v0c0,0.58667 0.27667,1.06 0.83,1.42c0.55333,0.35333 1.48667,0.66333 2.8,0.93c1.31333,0.26 2.42,0.55333 3.32,0.88v0c2.78,1.02 4.17,2.78667 4.17,5.3v0c0,1.8 -0.77,3.25667 -2.31,4.37c-1.54667,1.11333 -3.54,1.67 -5.98,1.67v0c-1.65333,0 -3.12333,-0.29667 -4.41,-0.89c-1.28,-0.58667 -2.28333,-1.39333 -3.01,-2.42c-0.73333,-1.02667 -1.1,-2.13667 -1.1,-3.33v0h5c0.04667,0.94 0.39333,1.65667 1.04,2.15c0.64,0.5 1.50333,0.75 2.59,0.75v0c1.00667,0 1.76667,-0.19 2.28,-0.57c0.52,-0.38667 0.78,-0.89 0.78,-1.51zM95.24167,218.595h5.27v4.85h3.37v3.86h-3.37v9.85c0,0.72667 0.14,1.25 0.42,1.57c0.28,0.31333 0.81333,0.47 1.6,0.47v0c0.58667,0 1.10333,-0.04333 1.55,-0.13v0v3.99c-1.03333,0.32 -2.09667,0.48 -3.19,0.48v0c-3.69333,0 -5.57667,-1.86667 -5.65,-5.6v0v-10.63h-2.88v-3.86h2.88zM106.05167,233.375v-0.21c0,-3.02667 0.72,-5.46333 2.16,-7.31c1.44,-1.85333 3.38333,-2.78 5.83,-2.78v0c2.16,0 3.84,0.74333 5.04,2.23v0l0.22,-1.86h4.78v19.07c0,1.72667 -0.39333,3.22667 -1.18,4.5c-0.78,1.27333 -1.88,2.24667 -3.3,2.92c-1.42667,0.66667 -3.09333,1 -5,1v0c-1.44667,0 -2.85667,-0.29 -4.23,-0.87c-1.37333,-0.57333 -2.41333,-1.31667 -3.12,-2.23v0l2.34,-3.21c1.31333,1.47333 2.90333,2.21 4.77,2.21v0c1.4,0 2.49,-0.37333 3.27,-1.12c0.77333,-0.74667 1.16,-1.80667 1.16,-3.18v0v-1.06c-1.21333,1.37333 -2.81,2.06 -4.79,2.06v0c-2.37333,0 -4.29,-0.92667 -5.75,-2.78c-1.46667,-1.85333 -2.2,-4.31333 -2.2,-7.38zM111.32167,233.545v0c0,1.78667 0.35667,3.18667 1.07,4.2c0.72,1.01333 1.70667,1.52 2.96,1.52v0c1.6,0 2.74667,-0.6 3.44,-1.8v0v-8.3c-0.7,-1.2 -1.83667,-1.8 -3.41,-1.8v0c-1.26,0 -2.25333,0.51667 -2.98,1.55c-0.72,1.03333 -1.08,2.57667 -1.08,4.63zM139.28167,223.315l-0.07,5.07c-0.72,-0.1 -1.35333,-0.15 -1.9,-0.15v0c-1.99333,0 -3.3,0.67667 -3.92,2.03v0v12.9h-5.26v-19.72h4.97l0.15,2.35c1.05333,-1.81333 2.51667,-2.72 4.39,-2.72v0c0.58667,0 1.13333,0.08 1.64,0.24zM150.48167,243.535v0c-2.89333,0 -5.25,-0.88667 -7.07,-2.66c-1.81333,-1.78 -2.72,-4.14333 -2.72,-7.09v0v-0.52c0,-1.98 0.38,-3.75 1.14,-5.31c0.76667,-1.56 1.85333,-2.76333 3.26,-3.61c1.4,-0.84667 3,-1.27 4.8,-1.27v0c2.7,0 4.82333,0.85333 6.37,2.56c1.55333,1.7 2.33,4.11 2.33,7.23v0v2.15h-12.56c0.16667,1.29333 0.68,2.32667 1.54,3.1c0.85333,0.78 1.93667,1.17 3.25,1.17v0c2.03333,0 3.62,-0.73667 4.76,-2.21v0l2.59,2.9c-0.79333,1.12 -1.86333,1.99333 -3.21,2.62c-1.34667,0.62667 -2.84,0.94 -4.48,0.94zM149.87167,227.345v0c-1.04,0 -1.88667,0.35333 -2.54,1.06c-0.64667,0.7 -1.06333,1.70667 -1.25,3.02v0h7.33v-0.42c-0.02667,-1.16667 -0.34333,-2.06667 -0.95,-2.7c-0.60667,-0.64 -1.47,-0.96 -2.59,-0.96zM175.69167,236.205v0c0,-1.03333 -0.36667,-1.82667 -1.1,-2.38c-0.72667,-0.55333 -2.04,-1.13667 -3.94,-1.75c-1.89333,-0.61333 -3.39333,-1.21667 -4.5,-1.81v0c-3.01333,-1.63333 -4.52,-3.82667 -4.52,-6.58v0c0,-1.43333 0.40333,-2.71333 1.21,-3.84c0.81333,-1.12667 1.97667,-2.00333 3.49,-2.63c1.51333,-0.63333 3.21,-0.95 5.09,-0.95v0c1.89333,0 3.58333,0.34333 5.07,1.03c1.48,0.68667 2.63,1.65333 3.45,2.9c0.82,1.25333 1.23,2.67667 1.23,4.27v0h-5.47c0,-1.21333 -0.38,-2.15667 -1.14,-2.83c-0.76667,-0.68 -1.84333,-1.02 -3.23,-1.02v0c-1.34,0 -2.38,0.28333 -3.12,0.85c-0.74,0.56667 -1.11,1.31 -1.11,2.23v0c0,0.86667 0.43333,1.59 1.3,2.17c0.87333,0.58667 2.15333,1.13333 3.84,1.64v0c3.11333,0.94 5.38,2.10333 6.8,3.49c1.42,1.38 2.13,3.10333 2.13,5.17v0c0,2.3 -0.86667,4.10333 -2.6,5.41c-1.74,1.30667 -4.08,1.96 -7.02,1.96v0c-2.04,0 -3.9,-0.37333 -5.58,-1.12c-1.68,-0.74667 -2.96,-1.77 -3.84,-3.07c-0.88,-1.30667 -1.32,-2.81667 -1.32,-4.53v0h5.49c0,2.93333 1.75,4.4 5.25,4.4v0c1.3,0 2.31333,-0.26667 3.04,-0.8c0.73333,-0.52667 1.1,-1.26333 1.1,-2.21zM206.64167,229.315v1.18c0,2.48 -0.4,4.63667 -1.2,6.47c-0.80667,1.82667 -1.92,3.29333 -3.34,4.4v0l4.41,3.46l-3.48,3.08l-5.65,-4.54c-0.64667,0.11333 -1.31667,0.17 -2.01,0.17v0c-2.2,0 -4.16,-0.53 -5.88,-1.59c-1.72667,-1.05333 -3.06333,-2.56333 -4.01,-4.53c-0.95333,-1.96 -1.43333,-4.21667 -1.44,-6.77v0v-1.31c0,-2.61333 0.47,-4.91333 1.41,-6.9c0.94,-1.98667 2.27,-3.51333 3.99,-4.58c1.72,-1.06 3.68667,-1.59 5.9,-1.59c2.20667,0 4.17,0.53 5.89,1.59c1.72,1.06667 3.05333,2.59333 4,4.58c0.94,1.98667 1.41,4.28 1.41,6.88zM201.10167,230.595v-1.3c0,-2.78 -0.5,-4.89333 -1.5,-6.34c-0.99333,-1.44667 -2.41333,-2.17 -4.26,-2.17v0c-1.84,0 -3.25667,0.71333 -4.25,2.14c-0.99333,1.42667 -1.49667,3.52 -1.51,6.28v0v1.29c0,2.71333 0.49667,4.81667 1.49,6.31c1,1.49333 2.43333,2.24 4.3,2.24v0c1.84,0 3.25,-0.72 4.23,-2.16c0.98667,-1.44 1.48667,-3.53667 1.5,-6.29zM216.12167,216.625v22.15h11.61v4.39h-17.08v-26.54z"></path></g></g></svg>