<svg xmlns="http://www.w3.org/2000/svg" xmlns:xlink="http://www.w3.org/1999/xlink" viewBox="0,0,256,256" width="50px" height="50px"><g fill="none" fill-rule="nonzero" stroke="none" stroke-width="1" stroke-linecap="butt" stroke-linejoin="miter" stroke-miterlimit="10" stroke-dasharray="" stroke-dashoffset="0" font-family="none" font-weight="none" font-size="none" text-anchor="none" style="mix-blend-mode: normal"><g transform="translate(-1.40267,-17.06667) scale(5.33333,5.33333)"><path d="M24.047,5c-1.555,0.005 -2.633,0.142 -3.936,0.367c-3.848,0.67 -4.549,2.077 -4.549,4.67v3.963h9v2h-9.342h-4.35c-2.636,0 -4.943,1.242 -5.674,4.219c-0.826,3.417 -0.863,5.557 0,9.125c0.655,2.661 2.098,4.656 4.735,4.656h3.632v-5.104c0,-2.966 2.686,-5.896 5.764,-5.896h7.236c2.523,0 5,-1.862 5,-4.377v-8.586c0,-2.439 -1.759,-4.263 -4.218,-4.672c0.061,-0.006 -1.756,-0.371 -3.298,-0.365zM19.063,9c0.821,0 1.5,0.677 1.5,1.502c0,0.833 -0.679,1.498 -1.5,1.498c-0.837,0 -1.5,-0.664 -1.5,-1.498c0,-0.822 0.663,-1.502 1.5,-1.502z" fill="#0277bd"></path><path d="M23.078,43c1.555,-0.005 2.633,-0.142 3.936,-0.367c3.848,-0.67 4.549,-2.077 4.549,-4.67v-3.963h-9v-2h9.343h4.35c2.636,0 4.943,-1.242 5.674,-4.219c0.826,-3.417 0.863,-5.557 0,-9.125c-0.656,-2.661 -2.099,-4.656 -4.736,-4.656h-3.632v5.104c0,2.966 -2.686,5.896 -5.764,5.896h-7.236c-2.523,0 -5,1.862 -5,4.377v8.586c0,2.439 1.759,4.263 4.218,4.672c-0.061,0.006 1.756,0.371 3.298,0.365zM28.063,39c-0.821,0 -1.5,-0.677 -1.5,-1.502c0,-0.833 0.679,-1.498 1.5,-1.498c0.837,0 1.5,0.664 1.5,1.498c0,0.822 -0.664,1.502 -1.5,1.502z" fill="#ffc107"></path></g></g><g fill="#000000" fill-rule="nonzero" stroke="none" stroke-width="1" stroke-linecap="butt" stroke-linejoin="miter" stroke-miterlimit="10" stroke-dasharray="" stroke-dashoffset="0" font-family="none" font-weight="none" font-size="none" text-anchor="none" style="mix-blend-mode: normal"><g><path d="M86.225,236.83167h-4.11v8.02h-4.69v-22.75h8.88c1.70667,0 3.20667,0.31333 4.5,0.94c1.3,0.62667 2.3,1.51333 3,2.66c0.69333,1.15333 1.04,2.46333 1.04,3.93v0c0,2.23333 -0.76333,3.99 -2.29,5.27c-1.52,1.28667 -3.63,1.93 -6.33,1.93zM82.115,225.90167v7.14h4.19c1.24,0 2.18333,-0.29333 2.83,-0.88c0.65333,-0.58 0.98,-1.41333 0.98,-2.5v0c0,-1.11333 -0.33,-2.01333 -0.99,-2.7c-0.65333,-0.68667 -1.55667,-1.04 -2.71,-1.06v0zM101.175,227.94167l3.14,10.52l3.13,-10.52h4.84l-6.8,19.54l-0.37,0.89c-1.01333,2.20667 -2.68,3.31 -5,3.31v0c-0.66,0 -1.32667,-0.1 -2,-0.3v0v-3.42l0.69,0.02c0.85333,0 1.49,-0.13333 1.91,-0.4c0.42,-0.26 0.75,-0.69 0.99,-1.29v0l0.53,-1.39l-5.92,-16.96zM114.955,223.79167h4.52v4.15h2.89v3.32h-2.89v8.43c0,0.62667 0.12,1.07667 0.36,1.35c0.24,0.26667 0.69667,0.4 1.37,0.4v0c0.5,0 0.94333,-0.03667 1.33,-0.11v0v3.43c-0.88667,0.26667 -1.79667,0.4 -2.73,0.4v0c-3.16667,0 -4.78333,-1.59667 -4.85,-4.79v0v-9.11h-2.47v-3.32h2.47zM129.285,220.85167v8.94c1.2,-1.44 2.70667,-2.16 4.52,-2.16v0c3.66667,0 5.52333,2.13 5.57,6.39v0v10.83h-4.51v-10.7c0,-0.97333 -0.21,-1.69 -0.63,-2.15c-0.41333,-0.46667 -1.10333,-0.7 -2.07,-0.7v0c-1.32667,0 -2.28667,0.51 -2.88,1.53v0v12.02h-4.51v-24zM142.085,236.44167v-0.2c0,-1.67333 0.32333,-3.16667 0.97,-4.48c0.64667,-1.31333 1.57667,-2.33 2.79,-3.05c1.21333,-0.72 2.62,-1.08 4.22,-1.08v0c2.28,0 4.14333,0.7 5.59,2.1c1.44,1.39333 2.24333,3.28667 2.41,5.68v0l0.03,1.16c0,2.59333 -0.72333,4.67333 -2.17,6.24c-1.44667,1.56667 -3.39,2.35 -5.83,2.35c-2.43333,0 -4.37667,-0.78 -5.83,-2.34c-1.45333,-1.56 -2.18,-3.68667 -2.18,-6.38zM146.595,236.57167v0c0,1.60667 0.30333,2.83333 0.91,3.68c0.60667,0.84667 1.47,1.27 2.59,1.27v0c1.09333,0 1.95,-0.42 2.57,-1.26c0.61333,-0.83333 0.92,-2.17333 0.92,-4.02v0c0,-1.57333 -0.30667,-2.79333 -0.92,-3.66c-0.62,-0.86 -1.48667,-1.29 -2.6,-1.29v0c-1.1,0 -1.95333,0.43 -2.56,1.29c-0.60667,0.86 -0.91,2.19 -0.91,3.99zM160.785,227.94167h4.25l0.14,1.96c1.20667,-1.51333 2.82667,-2.27 4.86,-2.27v0c1.79333,0 3.12667,0.52667 4,1.58c0.87333,1.05333 1.32,2.62667 1.34,4.72v0v10.92h-4.51v-10.81c0,-0.96 -0.21,-1.65667 -0.63,-2.09c-0.41333,-0.43333 -1.10333,-0.65 -2.07,-0.65v0c-1.27333,0 -2.22667,0.54333 -2.86,1.63v0v11.92h-4.52z"></path></g></g></svg>
