<svg xmlns="http://www.w3.org/2000/svg" xmlns:xlink="http://www.w3.org/1999/xlink" viewBox="0,0,256,256" width="50px" height="50px"><g fill="none" fill-rule="nonzero" stroke="none" stroke-width="1" stroke-linecap="butt" stroke-linejoin="miter" stroke-miterlimit="10" stroke-dasharray="" stroke-dashoffset="0" font-family="none" font-weight="none" font-size="none" text-anchor="none" style="mix-blend-mode: normal"><g transform="translate(-0.53333,-21.33333) scale(5.33333,5.33333)"><path d="M6,42v-36h36v36z" fill="#ffd600"></path><path d="M29.538,32.947c0.692,1.124 1.444,2.201 3.037,2.201c1.338,0 2.04,-0.665 2.04,-1.585c0,-1.101 -0.726,-1.492 -2.198,-2.133l-0.807,-0.344c-2.329,-0.988 -3.878,-2.226 -3.878,-4.841c0,-2.41 1.845,-4.244 4.728,-4.244c2.053,0 3.528,0.711 4.592,2.573l-2.514,1.607c-0.553,-0.988 -1.151,-1.377 -2.078,-1.377c-0.946,0 -1.545,0.597 -1.545,1.377c0,0.964 0.6,1.354 1.985,1.951l0.807,0.344c2.745,1.169 4.293,2.363 4.293,5.047c0,2.892 -2.284,4.477 -5.35,4.477c-2.999,0 -4.702,-1.505 -5.65,-3.368zM17.952,33.029c0.506,0.906 1.275,1.603 2.381,1.603c1.058,0 1.667,-0.418 1.667,-2.043v-10.589h3.333v11.101c0,3.367 -1.953,4.899 -4.805,4.899c-2.577,0 -4.437,-1.746 -5.195,-3.368z" fill="#000001"></path></g></g><g fill="#000000" fill-rule="nonzero" stroke="none" stroke-width="1" stroke-linecap="butt" stroke-linejoin="miter" stroke-miterlimit="10" stroke-dasharray="" stroke-dashoffset="0" font-family="none" font-weight="none" font-size="none" text-anchor="none" style="mix-blend-mode: normal"><g><path d="M72.95167,230.095v-13.12h3.9v13.12c0,1.20667 -0.26667,2.27333 -0.8,3.2c-0.53333,0.92667 -1.28667,1.64 -2.26,2.14c-0.97333,0.50667 -2.07,0.76 -3.29,0.76v0c-2.00667,0 -3.57,-0.51 -4.69,-1.53c-1.12,-1.02 -1.68,-2.46333 -1.68,-4.33v0h3.93c0,0.92667 0.19667,1.61 0.59,2.05c0.38667,0.44667 1.00333,0.67 1.85,0.67v0c0.74667,0 1.34,-0.25667 1.78,-0.77c0.44667,-0.51333 0.67,-1.24333 0.67,-2.19zM91.92167,235.935h-3.8c-0.18,-0.34 -0.30667,-0.76333 -0.38,-1.27v0c-0.91333,1.02 -2.1,1.53 -3.56,1.53v0c-1.38,0 -2.52333,-0.4 -3.43,-1.2c-0.90667,-0.8 -1.36,-1.80667 -1.36,-3.02v0c0,-1.49333 0.55333,-2.64 1.66,-3.44c1.10667,-0.8 2.70667,-1.20333 4.8,-1.21v0h1.73v-0.81c0,-0.64667 -0.16667,-1.16667 -0.5,-1.56c-0.33333,-0.39333 -0.86,-0.59 -1.58,-0.59v0c-0.63333,0 -1.13,0.15333 -1.49,0.46c-0.36,0.30667 -0.54,0.72333 -0.54,1.25v0h-3.77c0,-0.81333 0.25333,-1.57 0.76,-2.27c0.5,-0.69333 1.21,-1.23667 2.13,-1.63c0.92,-0.39333 1.95333,-0.59 3.1,-0.59v0c1.74,0 3.12,0.43667 4.14,1.31c1.02,0.86667 1.53,2.09 1.53,3.67v0v6.11c0.00667,1.34 0.19333,2.35333 0.56,3.04v0zM85.00167,233.315v0c0.56,0 1.07333,-0.12333 1.54,-0.37c0.46667,-0.24667 0.81333,-0.58 1.04,-1v0v-2.42h-1.4c-1.88667,0 -2.89,0.65 -3.01,1.95v0l-0.02,0.22c0,0.47333 0.16667,0.86 0.5,1.16c0.32667,0.30667 0.77667,0.46 1.35,0.46zM96.71167,221.845l2.62,9.49l2.61,-9.49h3.94l-4.76,14.09h-3.59l-4.75,-14.09zM119.30167,235.935h-3.8c-0.17333,-0.34 -0.3,-0.76333 -0.38,-1.27v0c-0.91333,1.02 -2.09667,1.53 -3.55,1.53v0c-1.38,0 -2.52667,-0.4 -3.44,-1.2c-0.90667,-0.8 -1.36,-1.80667 -1.36,-3.02v0c0,-1.49333 0.55333,-2.64 1.66,-3.44c1.10667,-0.8 2.70667,-1.20333 4.8,-1.21v0h1.73v-0.81c0,-0.64667 -0.16667,-1.16667 -0.5,-1.56c-0.33333,-0.39333 -0.86,-0.59 -1.58,-0.59v0c-0.63333,0 -1.13,0.15333 -1.49,0.46c-0.36,0.30667 -0.54,0.72333 -0.54,1.25v0h-3.76c0,-0.81333 0.25,-1.57 0.75,-2.27c0.50667,-0.69333 1.22,-1.23667 2.14,-1.63c0.92,-0.39333 1.95333,-0.59 3.1,-0.59v0c1.73333,0 3.11,0.43667 4.13,1.31c1.02,0.86667 1.53,2.09 1.53,3.67v0v6.11c0.00667,1.34 0.19333,2.35333 0.56,3.04v0zM112.39167,233.315v0c0.55333,0 1.06333,-0.12333 1.53,-0.37c0.47333,-0.24667 0.82,-0.58 1.04,-1v0v-2.42h-1.4c-1.88667,0 -2.89,0.65 -3.01,1.95v0l-0.01,0.22c0,0.47333 0.16333,0.86 0.49,1.16c0.33333,0.30667 0.78667,0.46 1.36,0.46zM131.71167,230.955v0c0,-0.73333 -0.26,-1.3 -0.78,-1.7c-0.52,-0.39333 -1.45667,-0.81 -2.81,-1.25c-1.36,-0.43333 -2.43333,-0.86333 -3.22,-1.29v0c-2.15333,-1.16667 -3.23,-2.73333 -3.23,-4.7v0c0,-1.02667 0.29,-1.94 0.87,-2.74c0.57333,-0.80667 1.4,-1.43333 2.48,-1.88c1.08,-0.45333 2.29333,-0.68 3.64,-0.68v0c1.35333,0 2.56,0.24333 3.62,0.73c1.06,0.49333 1.88333,1.18667 2.47,2.08c0.58667,0.89333 0.88,1.91 0.88,3.05v0h-3.91c0,-0.86667 -0.27333,-1.54333 -0.82,-2.03c-0.54667,-0.48 -1.31333,-0.72 -2.3,-0.72v0c-0.96,0 -1.70333,0.20333 -2.23,0.61c-0.52667,0.4 -0.79,0.93 -0.79,1.59v0c0,0.61333 0.31,1.13 0.93,1.55c0.62,0.41333 1.53333,0.80333 2.74,1.17v0c2.22,0.66667 3.83667,1.49667 4.85,2.49c1.02,0.98667 1.53,2.22 1.53,3.7v0c0,1.64 -0.62,2.92667 -1.86,3.86c-1.24667,0.93333 -2.92,1.4 -5.02,1.4v0c-1.45333,0 -2.78,-0.26667 -3.98,-0.8c-1.2,-0.53333 -2.11333,-1.26667 -2.74,-2.2c-0.63333,-0.92667 -0.95,-2.00333 -0.95,-3.23v0h3.92c0,2.09333 1.25,3.14 3.75,3.14v0c0.93333,0 1.66,-0.19 2.18,-0.57c0.52,-0.37333 0.78,-0.9 0.78,-1.58zM143.88167,233.155v0c0.7,0 1.26667,-0.19 1.7,-0.57c0.43333,-0.38 0.65667,-0.88667 0.67,-1.52v0h3.53c-0.00667,0.95333 -0.26667,1.82667 -0.78,2.62c-0.51333,0.79333 -1.21333,1.41 -2.1,1.85c-0.89333,0.44 -1.87667,0.66 -2.95,0.66v0c-2.01333,0 -3.60333,-0.64 -4.77,-1.92c-1.16,-1.28 -1.74,-3.05 -1.74,-5.31v0v-0.25c0,-2.16667 0.57667,-3.89667 1.73,-5.19c1.15333,-1.29333 2.73667,-1.94 4.75,-1.94v0c1.76667,0 3.18,0.5 4.24,1.5c1.06667,1.00667 1.60667,2.34333 1.62,4.01v0h-3.53c-0.01333,-0.73333 -0.23667,-1.32667 -0.67,-1.78c-0.43333,-0.46 -1.00667,-0.69 -1.72,-0.69v0c-0.88,0 -1.54333,0.32 -1.99,0.96c-0.44667,0.64 -0.67,1.67667 -0.67,3.11v0v0.39c0,1.44667 0.22333,2.48667 0.67,3.12c0.44,0.63333 1.11,0.95 2.01,0.95zM159.90167,221.755l-0.05,3.62c-0.51333,-0.07333 -0.96667,-0.11 -1.36,-0.11v0c-1.42,0 -2.35333,0.48333 -2.8,1.45v0v9.22h-3.76v-14.09h3.56l0.1,1.68c0.75333,-1.29333 1.8,-1.94 3.14,-1.94v0c0.41333,0 0.80333,0.05667 1.17,0.17zM165.63167,221.845v14.09h-3.78v-14.09zM161.63167,218.195v0c0,-0.56 0.19,-1.02333 0.57,-1.39c0.37333,-0.36667 0.88667,-0.55 1.54,-0.55v0c0.64,0 1.15333,0.18333 1.54,0.55c0.38,0.36667 0.57,0.83 0.57,1.39v0c0,0.57333 -0.19333,1.04333 -0.58,1.41c-0.38667,0.36667 -0.89667,0.55 -1.53,0.55c-0.63333,0 -1.14333,-0.18333 -1.53,-0.55c-0.38667,-0.36667 -0.58,-0.83667 -0.58,-1.41zM181.41167,228.825v0.19c0,2.17333 -0.49333,3.91333 -1.48,5.22c-0.98667,1.30667 -2.31667,1.96 -3.99,1.96v0c-1.42,0 -2.57,-0.49667 -3.45,-1.49v0v6.64h-3.76v-19.5h3.49l0.13,1.38c0.90667,-1.09333 2.09333,-1.64 3.56,-1.64v0c1.74,0 3.09,0.64 4.05,1.92c0.96667,1.28667 1.45,3.06 1.45,5.32zM177.65167,228.745v0c0,-1.31333 -0.23333,-2.32333 -0.7,-3.03c-0.46667,-0.71333 -1.14,-1.07 -2.02,-1.07v0c-1.18667,0 -2,0.45 -2.44,1.35v0v5.77c0.46,0.92667 1.28,1.39 2.46,1.39v0c1.8,0 2.7,-1.47 2.7,-4.41zM184.48167,218.375h3.77v3.47h2.4v2.76h-2.4v7.03c0,0.52 0.09667,0.89333 0.29,1.12c0.2,0.22667 0.58333,0.34 1.15,0.34v0c0.42,0 0.79,-0.03 1.11,-0.09v0v2.85c-0.74,0.22667 -1.5,0.34 -2.28,0.34v0c-2.64,0 -3.98667,-1.33333 -4.04,-4v0v-7.59h-2.05v-2.76h2.05z"></path></g></g></svg>
